:SAMPLES-PER-SECOND 30
:FULLY-SPECIFIED
:DEGREES
39
root  -8.57021 38.3078 11.8582 -67.6888 -80.7344 65.9881
RightUpLeg  0.454505 4.82071 -24.6276
RightLeg  48.5475 -5.98153 -7.41305
RightFoot  10.4965 -1.41134 7.46676
RightToes  0.00048216 0.542163 -0.142577
Spine  16.2752 0.958264 -5.78239
Spine1  7.08302 -0.0166034 0.21258
HEad  10.0393 -10.1169 3.74453
LeftShoulder1  7.77816 -11.749 -44.4082
LeftArm  -12.751 18.5249 -26.4889
LeftForeArm  25.1954 -11.0093 -4.36926
LeftHand  -0.25398 0.0180481 5.50724
RightShoulder  4.0516 7.30055 31.5529
RightArm  -5.96524 -16.3408 29.7597
RightForeArm  -12.4377 25.7986 6.1551
RightHand  -3.1413 9.29801 -24.8928
LeftUpLeg  -22.0835 21.2951 -7.66287
LeftLeg  28.8559 3.62773 2.51661
LeftFoot  -5.63794 0.0121855 0.403367
LeftToes  1.06246e-005 4.65856e-005 -8.18501e-006
40
root  -9.64739 38.5428 12.5806 -68.5971 -80.4702 66.2349
RightUpLeg  -5.41361 5.12987 -23.493
RightLeg  56.4043 -2.05836 -3.79851
RightFoot  10.801 -0.93967 5.17161
RightToes  0.00048216 0.542163 -0.142577
Spine  17.2394 0.633089 -6.72046
Spine1  7.0714 -0.764657 1.05896
HEad  10.8569 -10.0505 3.44727
LeftShoulder1  7.79219 -11.9131 -43.9955
LeftArm  -14.1636 13.4863 -24.9372
LeftForeArm  24.2204 -12.6314 -3.98937
LeftHand  -0.25398 0.0180481 5.50724
RightShoulder  4.13675 7.48216 31.7098
RightArm  -5.86518 -15.011 31.0954
RightForeArm  -11.5158 26.6487 6.3117
RightHand  -2.92464 8.65317 -24.2522
LeftUpLeg  -18.8621 21.0253 -8.07898
LeftLeg  28.1808 4.01627 2.68614
LeftFoot  -7.20845 0.025223 0.488601
LeftToes  1.06246e-005 4.65856e-005 -8.18501e-006
41
root  -10.76 38.8949 13.2573 -67.5189 -80.7332 64.4112
RightUpLeg  -10.5372 3.35208 -21.3268
RightLeg  61.1623 -0.65081 -1.88899
RightFoot  8.14772 -0.976333 6.01976
RightToes  0.00048216 0.542163 -0.142577
Spine  18.1292 0.147496 -6.8819
Spine1  7.04998 -1.57668 2.16687
HEad  11.5076 -10.1392 3.24746
LeftShoulder1  7.6623 -11.8952 -43.275
LeftArm  -16.3352 8.74133 -23.9092
LeftForeArm  23.4964 -15.0254 -3.50479
LeftHand  -0.25398 0.0180481 5.50724
RightShoulder  4.20355 7.57091 32.0132
RightArm  -5.2231 -14.0144 32.6721
RightForeArm  -8.59735 27.3804 6.34396
RightHand  -2.50198 7.42042 -22.7949
LeftUpLeg  -14.9384 21.2881 -7.65995
LeftLeg  26.3771 3.81694 2.40976
LeftFoot  -8.38888 0.0419151 0.334682
LeftToes  1.06246e-005 4.65856e-005 -8.18501e-006
42
root  -11.907 39.2579 13.8848 -66.4257 -81.2896 62.7396
RightUpLeg  -15.1223 -0.346423 -18.2404
RightLeg  62.4297 -1.83517 -4.33733
RightFoot  5.59425 -0.888041 6.18554
RightToes  0.00048216 0.542163 -0.142577
Spine  18.7259 -0.261534 -6.7617
Spine1  6.99257 -2.28078 3.32752
HEad  11.9408 -10.5663 3.23988
LeftShoulder1  7.51797 -11.8655 -42.4967
LeftArm  -19.2433 4.73557 -23.2888
LeftForeArm  23.2715 -18.2572 -3.22923
LeftHand  -0.25398 0.0180481 5.50724
RightShoulder  4.23124 7.61939 32.097
RightArm  -4.23062 -13.7007 34.4876
RightForeArm  -4.92206 27.7242 6.24161
RightHand  -2.13176 6.32358 -21.297
LeftUpLeg  -10.794 22.145 -6.85377
LeftLeg  24.0013 3.25778 1.96038
LeftFoot  -9.65952 0.0517698 0.44676
LeftToes  1.06246e-005 4.65856e-005 -8.18501e-006
43
root  -13.0962 39.5792 14.4932 -65.1169 -81.8282 61.1424
RightUpLeg  -19.0159 -5.24215 -14.4539
RightLeg  60.1735 -3.66807 -7.37948
RightFoot  3.04812 -0.558873 4.57857
RightToes  0.00048216 0.542163 -0.142577
Spine  18.9057 -0.681997 -6.74992
Spine1  6.93506 -3.06673 4.75237
HEad  12.1492 -11.1391 3.36463
LeftShoulder1  7.45778 -11.9044 -42.0193
LeftArm  -22.3534 1.66616 -22.5358
LeftForeArm  23.6422 -22.3737 -3.57633
LeftHand  -0.25398 0.0180481 5.50724
RightShoulder  4.24325 7.67632 32.0104
RightArm  -2.80633 -13.8655 36.2724
RightForeArm  -2.60785 27.5647 6.08429
RightHand  -1.9319 5.71416 -20.3821
LeftUpLeg  -6.66322 22.6697 -6.02103
LeftLeg  21.0973 2.96287 1.45258
LeftFoot  -10.5903 0.0591448 0.663917
LeftToes  1.06246e-005 4.65856e-005 -8.18501e-006
44
root  -14.3152 39.7982 15.0839 -64.6781 -82.1561 60.6162
RightUpLeg  -22.0736 -10.2112 -10.4799
RightLeg  54.5223 -4.20396 -6.79106
RightFoot  0.31295 -0.429315 4.27466
RightToes  0.00048216 0.542163 -0.142577
Spine  18.9254 -1.10646 -7.06648
Spine1  6.84017 -3.94677 6.29413
HEad  12.1121 -11.696 3.51521
LeftShoulder1  7.45366 -11.9723 -41.7969
LeftArm  -24.6675 -0.75477 -21.4188
LeftForeArm  24.2299 -26.8712 -4.47254
LeftHand  -0.25398 0.0180481 5.50724
RightShoulder  4.27323 7.7233 32.119
RightArm  -1.1511 -14.2242 37.6647
RightForeArm  -2.26021 27.0064 5.93404
RightHand  -1.83314 5.34212 -20.0124
LeftUpLeg  -2.77794 20.9671 -5.27081
LeftLeg  18.347 4.80879 0.674945
LeftFoot  -11.3815 0.0681289 0.492785
LeftToes  1.06246e-005 4.65856e-005 -8.18501e-006
45
root  -15.5912 39.8262 15.6441 -68.2539 -82.1119 64.1588
RightUpLeg  -24.2354 -14.8375 -6.71497
RightLeg  46.1801 -3.27835 -3.98712
RightFoot  -1.76672 -0.526798 6.13768
RightToes  0.00048216 0.542163 -0.142577
Spine  18.9029 -1.32913 -7.99191
Spine1  6.67552 -4.64927 7.52993
HEad  11.8526 -12.2849 3.67061
LeftShoulder1  7.43388 -12.0192 -41.5421
LeftArm  -25.8376 -2.90214 -20.237
LeftForeArm  24.9384 -31.174 -5.42611
LeftHand  -0.25398 0.0180481 5.50724
RightShoulder  4.32504 7.74478 32.5076
RightArm  0.244076 -14.7683 38.6293
RightForeArm  -2.66085 26.1969 5.76573
RightHand  -1.73638 4.92423 -19.722
LeftUpLeg  0.536239 16.8992 -5.25603
LeftLeg  16.7447 9.3393 -0.272218
LeftFoot  -12.7887 0.0788572 0.151467
LeftToes  1.06246e-005 4.65856e-005 -8.18501e-006
46
root  -16.973 39.682 16.1871 -74.3796 -81.5893 70.2369
RightUpLeg  -25.4714 -20.1791 -2.86547
RightLeg  35.9819 -2.67803 -2.34559
RightFoot  -3.26063 -0.554421 7.50166
RightToes  0.00048216 0.542163 -0.142577
Spine  18.5586 -1.40314 -9.45192
Spine1  6.65152 -5.19487 8.63476
HEad  11.4472 -12.9675 3.86463
LeftShoulder1  7.3901 -12.0496 -41.1912
LeftArm  -26.5131 -4.88948 -19.2907
LeftForeArm  26.2108 -35.0302 -6.31912
LeftHand  -0.25398 0.0180481 5.50724
RightShoulder  4.37378 7.76376 32.8752
RightArm  1.13076 -15.6199 39.3896
RightForeArm  -2.70613 25.2802 5.55757
RightHand  -1.60077 4.39027 -19.1769
LeftUpLeg  3.57008 12.0975 -6.46129
LeftLeg  15.7382 14.8721 -1.00112
LeftFoot  -14.7302 0.0911193 0.0798689
LeftToes  1.06246e-005 4.65856e-005 -8.18501e-006
47
root  -18.4388 39.4754 16.7183 -78.1432 -80.7829 73.9538
RightUpLeg  -26.1933 -27.991 1.98966
RightLeg  24.3169 -2.59701 -1.76892
RightFoot  -4.53607 -0.489946 7.70592
RightToes  0.00048216 0.542163 -0.142577
Spine  17.7904 -1.5819 -10.9662
Spine1  7.01625 -5.90806 10.0865
HEad  11.0165 -13.722 4.03583
LeftShoulder1  7.35849 -12.0986 -40.8614
LeftArm  -26.7622 -6.70491 -18.6203
LeftForeArm  27.576 -38.2164 -7.10637
LeftHand  -0.25398 0.0180481 5.50724
RightShoulder  4.39714 7.77591 33.04
RightArm  1.76991 -16.7799 39.9654
RightForeArm  -2.60081 24.4126 5.35467
RightHand  -1.44319 3.77817 -18.4497
LeftUpLeg  6.87185 7.55489 -8.44034
LeftLeg  14.0066 19.8729 -1.69386
LeftFoot  -16.511 0.0939961 -0.100623
LeftToes  1.06246e-005 4.65856e-005 -8.18501e-006
48
root  -19.969 39.2006 17.2286 -79.3886 -79.9339 75.1362
RightUpLeg  -24.9084 -30.2135 3.76934
RightLeg  11.6389 -9.9093 1.52813
RightFoot  -5.03047 -0.475924 7.98655
RightToes  0.00048216 0.542163 -0.142577
Spine  16.8542 -1.90072 -12.3169
Spine1  7.57913 -6.80048 11.7244
HEad  10.6831 -14.5162 4.0285
LeftShoulder1  7.34527 -12.1896 -40.525
LeftArm  -26.3035 -8.27034 -18.2666
LeftForeArm  28.3209 -40.4738 -7.72469
LeftHand  -0.25398 0.0180481 5.50724
RightShoulder  4.39163 7.75081 33.078
RightArm  2.50466 -18.0922 40.1833
RightForeArm  -2.79143 23.5955 5.19482
RightHand  -1.29015 3.13515 -17.7354
LeftUpLeg  10.2305 5.13119 -10.3734
LeftLeg  12.3409 22.3862 -2.33966
LeftFoot  -18.1565 0.0604062 -0.805071
LeftToes  1.06246e-005 4.65856e-005 -8.18501e-006
49
root  -21.6153 38.7923 17.7445 -80.2439 -79.2277 75.8761
RightUpLeg  -18.6002 -12.4517 -4.96558
RightLeg  -1.46155 -36.5218 11.0863
RightFoot  -5.1018 -0.512686 8.80372
RightToes  0.00048216 0.542163 -0.142577
Spine  15.8665 -2.35004 -13.1659
Spine1  7.9884 -7.6294 13.0189
HEad  10.4936 -15.3336 3.76661
LeftShoulder1  7.33367 -12.3133 -40.111
LeftArm  -25.2131 -9.30527 -18.4314
LeftForeArm  28.6309 -42.0387 -8.19509
LeftHand  -0.25398 0.0180481 5.50724
RightShoulder  4.34195 7.66438 32.9351
RightArm  3.12121 -19.404 40.0943
RightForeArm  -2.62286 22.6779 5.09794
RightHand  -1.13313 2.44165 -16.9423
LeftUpLeg  13.1076 4.86945 -11.8725
LeftLeg  12.5243 22.7885 -2.20911
LeftFoot  -20.0252 0.00563765 -1.51958
LeftToes  1.06246e-005 4.65856e-005 -8.18501e-006
50
root  -23.3744 38.3407 18.3065 -80.013 -79.1475 75.6437
RightUpLeg  -17.7992 -10.204 -4.5476
RightLeg  -6.35411 -42.0881 14.5396
RightFoot  -6.24475 -0.476419 9.72338
RightToes  0.00048216 0.542163 -0.142577
Spine  14.7169 -3.12655 -12.4918
Spine1  8.33984 -8.47039 13.7568
HEad  10.4032 -16.1921 3.29725
LeftShoulder1  7.35409 -12.4342 -39.8995
LeftArm  -23.8932 -9.5106 -19.1747
LeftForeArm  29.5201 -43.5463 -8.63249
LeftHand  -0.25398 0.0180481 5.50724
RightShoulder  4.21194 7.46321 32.4615
RightArm  3.04126 -20.7284 39.8331
RightForeArm  -1.33745 21.7079 5.07563
RightHand  -0.974385 1.75444 -15.9595
LeftUpLeg  15.4703 7.06303 -12.0752
LeftLeg  14.3015 20.7007 -1.21508
LeftFoot  -21.9413 -0.0559088 -2.00775
LeftToes  1.06246e-005 4.65856e-005 -8.18501e-006
